# xmcd CD database file
#
# Track frame offsets:
#	182
#	11060
#	23172
#	42472
#	53250
#	65495
#	74407
#	86300
#	97085
#	113495
#	127337
#	139757
#	152192
#	161902
#	175077
#	186490
#	200062
#	212662
#	225257
#	236442
#
# Disc length: 3299 seconds
#
# Revision: 0
# Processed by: cddbd v1.4PL0 Copyright (c) Steve Scherf et al.
# Submitted via: CDex 1.50beta9
#
DISCID=180ce114
DTITLE=Tammy Wynette - All-Time Favourittes
DYEAR=1994
DGENRE=Country
TTITLE0=Never ending songs of love
TTITLE1=There goes my everything
TTITLE2=Ode to Billy Joe
TTITLE3=The Hawaiian wedding song
TTITLE4=Crying time
TTITLE5=Yesterday
TTITLE6=Something stupid
TTITLE7=Near you
TTITLE8=Sometimes when we tough
TTITLE9=Crying in the rain
TTITLE10=Help me make it through the night
TTITLE11=Funny face
TTITLE12=Did you ever
TTITLE13=My elusive dreams
TTITLE14=Sweet dreams
TTITLE15=Almoust persuaded
TTITLE16=That's what friends are for
TTITLE17=Cry
TTITLE18=Hey good lookin'
TTITLE19=Heaven's just a sin away
EXTD=YEAR: 1994
EXTT0=
EXTT1=
EXTT2=
EXTT3=
EXTT4=
EXTT5=
EXTT6=
EXTT7=
EXTT8=
EXTT9=
EXTT10=
EXTT11=
EXTT12=
EXTT13=
EXTT14=
EXTT15=
EXTT16=
EXTT17=
EXTT18=
EXTT19=
PLAYORDER=
